<svg width="15" height="15" viewBox="0 0 15 15" fill="none" xmlns="http://www.w3.org/2000/svg">
<path d="M1.25 1.25H2.3375C3.0125 1.25 3.54375 1.83125 3.4875 2.5L2.96875 8.72499C2.88125 9.74374 3.6875 10.6187 4.7125 10.6187H11.3688C12.2688 10.6187 13.0563 9.88125 13.125 8.9875L13.4625 4.3C13.5375 3.2625 12.75 2.41875 11.7062 2.41875H3.6375" stroke="white" stroke-miterlimit="10" stroke-linecap="round" stroke-linejoin="round"/>
<path d="M10.1562 13.75C10.5877 13.75 10.9375 13.4002 10.9375 12.9688C10.9375 12.5373 10.5877 12.1875 10.1562 12.1875C9.72478 12.1875 9.375 12.5373 9.375 12.9688C9.375 13.4002 9.72478 13.75 10.1562 13.75Z" stroke="white" stroke-miterlimit="10" stroke-linecap="round" stroke-linejoin="round"/>
<path d="M5.15625 13.75C5.58772 13.75 5.9375 13.4002 5.9375 12.9688C5.9375 12.5373 5.58772 12.1875 5.15625 12.1875C4.72478 12.1875 4.375 12.5373 4.375 12.9688C4.375 13.4002 4.72478 13.75 5.15625 13.75Z" stroke="white" stroke-miterlimit="10" stroke-linecap="round" stroke-linejoin="round"/>
<path d="M5.625 5H13.125" stroke="white" stroke-miterlimit="10" stroke-linecap="round" stroke-linejoin="round"/>
</svg>
