<svg width="27" height="26" viewBox="0 0 27 26" fill="none" xmlns="http://www.w3.org/2000/svg">
<path opacity="0.4" d="M22.7083 11.0391H19.5775C17.01 11.0391 14.9192 8.94829 14.9192 6.38079V3.24996C14.9192 2.65413 14.4317 2.16663 13.8358 2.16663H9.24251C5.90584 2.16663 3.20834 4.33329 3.20834 8.20079V17.7991C3.20834 21.6666 5.90584 23.8333 9.24251 23.8333H17.7575C21.0942 23.8333 23.7917 21.6666 23.7917 17.7991V12.1225C23.7917 11.5266 23.3042 11.0391 22.7083 11.0391Z" fill="#EE1D5C"/>
<path d="M17.6167 2.3942C17.1725 1.95003 16.4033 2.25337 16.4033 2.87087V6.6517C16.4033 8.23337 17.7467 9.5442 19.3825 9.5442C20.4117 9.55503 21.8417 9.55503 23.0658 9.55503C23.6833 9.55503 24.0083 8.8292 23.575 8.39587C22.015 6.82503 19.22 3.99753 17.6167 2.3942Z" fill="#EE1D5C"/>
<path d="M12.9908 13.5091L10.8242 11.3425C10.8133 11.3316 10.8025 11.3316 10.8025 11.3208C10.7375 11.2558 10.6508 11.2016 10.5642 11.1583C10.5533 11.1583 10.5533 11.1583 10.5425 11.1583C10.4558 11.1258 10.3692 11.115 10.2825 11.1041C10.25 11.1041 10.2283 11.1041 10.1958 11.1041C10.1308 11.1041 10.055 11.1258 9.98999 11.1475C9.95749 11.1583 9.93582 11.1691 9.91415 11.18C9.82749 11.2233 9.74082 11.2666 9.67582 11.3425L7.50915 13.5091C7.19499 13.8233 7.19499 14.3433 7.50915 14.6575C7.82332 14.9716 8.34332 14.9716 8.65749 14.6575L9.43749 13.8775V18.4166C9.43749 18.8608 9.80582 19.2291 10.25 19.2291C10.6942 19.2291 11.0625 18.8608 11.0625 18.4166V13.8775L11.8425 14.6575C12.005 14.82 12.2108 14.8958 12.4167 14.8958C12.6225 14.8958 12.8283 14.82 12.9908 14.6575C13.305 14.3433 13.305 13.8233 12.9908 13.5091Z" fill="#EE1D5C"/>
</svg>
